<svg xmlns="http://www.w3.org/2000/svg" width="64" height="64" viewBox="0 0 64 64" role="img" aria-labelledby="title-drama">
<title id="title-drama">Drama anime genre icon</title>
<style>
.icon-stroke { fill: none; stroke: #F8F5F2; stroke-width: 4; stroke-linecap: round; stroke-linejoin: round; }
.soft-stroke { fill: none; stroke: #FFC56E; stroke-width: 3.4; stroke-linecap: round; stroke-linejoin: round; }
.coral { fill: #FF7A6E; }
.gold { fill: #FFC56E; }
.violet { fill: #9B8AFB; }
.ink { fill: #F8F5F2; }
.dark { fill: #28272C; }
</style>

  <path class="gold" d="M8 15c9 1 15-1 22-5v19c0 10-7 18-17 18-3-7-5-20-5-32z"/>
  <path class="coral" d="M34 18c7 4 13 5 22 4 0 12-2 25-6 32-10 0-16-8-16-18V18z"/>
  <path class="icon-stroke" d="M15 27c2-2 4-2 6 0M18 38c3-4 7-4 10 0M42 34c2 2 4 2 6 0M40 44c3 3 7 3 10 0"/>

</svg>
