<?xml version="1.0" encoding="UTF-8" standalone="no"?>
<!DOCTYPE svg PUBLIC "-//W3C//DTD SVG 1.1//EN" "http://www.w3.org/Graphics/SVG/1.1/DTD/svg11.dtd">
<svg xmlns="http://www.w3.org/2000/svg" version="1.1" viewBox="0 0 1563 670" width="1563.0pt" height="670.0pt">
<path d="M 0.00 0.00 L 1563.00 0.00 L 1563.00 428.83 C 1554.78 423.90 1544.43 424.01 1536.55 429.56 C 1532.97 432.01 1531.18 435.43 1529.02 439.05 C 1525.49 437.18 1522.46 435.17 1518.42 434.54 C 1513.71 433.86 1509.25 434.37 1504.87 436.26 C 1503.87 435.99 1503.21 435.46 1502.88 434.66 C 1504.71 434.01 1506.84 433.59 1508.46 432.49 C 1510.07 430.60 1507.99 428.64 1506.99 427.01 C 1503.02 421.93 1499.33 416.85 1497.33 410.63 C 1499.08 410.21 1500.83 409.80 1502.59 409.43 C 1502.93 407.88 1503.31 407.07 1502.26 405.67 C 1497.49 398.73 1493.52 391.32 1490.53 383.44 C 1489.21 380.11 1488.43 376.42 1486.70 373.29 C 1485.84 371.85 1484.69 372.34 1483.29 372.21 C 1481.29 375.61 1480.25 379.21 1478.83 382.85 C 1476.24 389.57 1473.07 396.11 1469.12 402.12 C 1467.76 404.32 1466.19 406.08 1466.07 408.79 C 1467.96 409.40 1469.86 409.98 1471.77 410.53 C 1468.92 417.21 1464.85 422.95 1460.95 428.94 C 1460.09 430.11 1460.23 431.18 1460.32 432.55 C 1462.18 433.27 1464.02 434.02 1465.87 434.75 C 1464.33 439.57 1461.51 443.54 1458.50 447.52 C 1456.46 450.15 1454.77 453.13 1452.50 455.56 C 1451.92 455.88 1451.27 456.05 1450.54 456.09 C 1444.97 448.70 1439.55 441.77 1435.89 433.08 C 1438.59 432.43 1444.37 432.94 1444.44 428.97 C 1442.28 425.11 1439.15 421.88 1436.97 418.01 C 1433.92 412.74 1430.79 407.28 1428.89 401.47 C 1431.24 401.28 1434.26 401.56 1436.33 400.32 C 1437.64 398.27 1436.04 396.69 1435.06 394.96 C 1427.91 384.31 1423.04 371.91 1419.36 359.68 C 1418.55 357.71 1418.40 355.15 1416.02 354.48 C 1414.08 354.87 1413.50 356.25 1412.95 357.95 C 1409.43 368.85 1405.74 380.06 1400.12 390.10 C 1398.73 392.79 1396.90 395.26 1395.63 398.01 C 1395.26 398.83 1395.56 399.64 1396.52 400.45 C 1398.63 401.18 1401.05 401.26 1403.27 401.49 C 1400.52 410.59 1395.65 419.37 1389.99 427.00 C 1389.02 428.22 1388.56 430.94 1390.41 431.58 C 1392.50 432.46 1394.90 432.75 1397.11 433.21 C 1395.12 438.21 1392.12 442.83 1389.33 447.41 C 1385.46 445.02 1383.39 439.73 1381.92 435.62 C 1383.75 434.98 1385.49 434.81 1386.68 433.12 C 1381.95 425.43 1377.71 417.65 1375.03 408.98 C 1374.25 407.14 1373.99 404.52 1371.99 403.66 C 1369.72 404.16 1369.65 406.04 1368.85 407.86 C 1366.50 415.38 1363.48 422.61 1359.28 429.30 C 1358.35 430.91 1357.32 432.24 1357.45 434.19 C 1358.95 434.69 1360.44 435.21 1361.92 435.73 C 1360.02 441.74 1356.14 446.26 1353.13 451.63 C 1354.71 452.61 1356.29 453.57 1357.88 454.51 C 1356.54 458.11 1354.32 461.07 1352.13 464.17 C 1350.12 461.76 1348.27 459.05 1345.43 457.56 C 1342.13 455.71 1338.09 455.89 1334.40 455.63 C 1333.84 454.06 1333.25 452.49 1332.74 450.90 C 1330.32 427.99 1327.83 405.08 1324.70 382.26 C 1324.36 379.31 1324.05 376.35 1323.64 373.41 C 1325.67 373.20 1328.10 373.23 1328.69 370.81 C 1328.96 367.88 1328.89 364.93 1329.09 361.99 C 1329.11 360.02 1329.42 357.78 1327.72 356.36 C 1325.06 356.06 1322.33 356.13 1319.65 356.07 C 1319.79 349.52 1319.61 342.98 1319.68 336.43 C 1321.23 336.25 1323.22 336.72 1323.53 334.66 C 1324.09 332.02 1321.35 331.61 1319.66 330.39 C 1318.08 327.05 1316.38 323.91 1313.54 321.46 C 1310.85 318.92 1307.66 317.88 1304.26 316.64 C 1304.60 313.94 1305.76 310.63 1303.57 308.43 C 1300.98 305.37 1295.52 306.57 1294.39 310.36 C 1293.94 312.32 1294.58 314.60 1294.84 316.58 C 1291.08 318.17 1287.55 319.64 1284.66 322.65 C 1282.31 324.95 1281.13 327.72 1279.79 330.65 C 1278.62 331.25 1277.45 331.86 1276.28 332.46 C 1276.24 333.60 1276.21 334.74 1276.17 335.88 C 1277.37 336.14 1278.56 336.40 1279.79 336.48 C 1279.91 343.00 1279.81 349.51 1279.83 356.03 C 1277.32 356.38 1272.13 355.12 1270.59 357.46 C 1270.16 361.54 1270.36 365.78 1270.37 369.89 C 1270.40 372.90 1273.44 372.92 1275.58 373.88 C 1275.49 375.29 1275.38 376.70 1275.25 378.12 C 1275.13 379.05 1275.02 379.99 1274.91 380.92 C 1273.66 394.65 1271.61 408.30 1270.36 422.03 C 1269.00 436.82 1267.13 451.55 1266.04 466.35 L 1265.20 466.37 C 1262.37 466.26 1259.81 467.09 1257.16 467.94 C 1252.78 460.23 1243.08 458.10 1235.16 461.16 C 1228.10 463.79 1223.17 469.77 1221.88 477.20 C 1210.22 480.26 1199.70 486.71 1192.45 496.44 C 1189.54 500.50 1186.77 504.57 1184.48 509.02 C 1176.37 507.58 1168.21 506.53 1160.00 505.88 C 1138.37 504.96 1117.98 504.81 1097.35 512.34 C 1089.52 515.21 1082.11 519.65 1075.04 524.06 C 1069.70 527.43 1064.44 530.24 1058.01 530.74 C 1051.37 531.12 1044.65 530.28 1038.00 530.14 C 1019.23 528.83 1000.33 531.14 982.63 537.60 C 974.21 540.51 964.96 544.03 956.00 543.77 C 940.46 544.55 925.47 544.53 910.25 548.32 C 897.71 551.30 883.73 556.89 875.34 567.10 C 723.90 567.12 572.44 567.06 421.00 567.10 C 410.92 567.43 400.87 566.50 390.82 567.22 C 383.75 566.04 376.73 564.38 369.74 562.78 C 370.17 561.07 370.76 559.45 371.45 557.83 C 374.91 548.71 370.58 538.36 361.96 534.01 C 357.57 531.59 353.36 532.37 348.58 532.49 C 348.51 528.69 348.83 525.25 347.34 521.66 C 344.47 514.11 336.06 508.80 327.98 510.15 C 324.38 510.54 321.15 512.55 317.75 513.95 C 317.00 510.59 316.64 507.26 314.69 504.35 C 310.38 497.91 302.67 493.75 294.86 495.70 C 290.16 496.57 286.70 499.26 283.08 502.17 C 280.82 495.63 277.31 490.01 270.58 487.44 C 259.50 483.19 246.85 489.48 242.58 500.32 C 240.66 498.23 238.93 496.01 237.31 493.69 C 234.08 488.40 231.15 483.19 229.10 477.31 C 231.52 476.80 235.66 477.21 237.22 474.98 C 237.94 472.83 236.29 471.44 235.27 469.74 C 231.01 463.87 227.84 457.39 225.19 450.66 C 227.49 450.25 231.15 450.56 232.86 448.80 C 233.03 447.30 232.90 446.25 232.02 445.00 C 224.08 433.86 219.37 420.40 215.51 407.43 C 214.94 404.85 211.90 404.18 210.67 406.61 C 207.87 413.89 205.97 421.62 202.74 428.76 C 201.09 432.10 199.40 435.42 197.91 438.85 C 194.28 435.61 192.01 431.56 189.55 427.45 C 185.02 420.14 181.09 412.26 178.57 404.02 C 181.57 403.60 185.72 404.09 188.29 402.29 C 189.90 400.74 187.87 397.56 186.99 396.02 C 176.72 380.22 170.87 363.13 165.63 345.18 C 165.14 343.50 163.78 340.89 161.65 341.60 C 159.49 342.35 158.96 345.26 158.26 347.17 C 153.37 364.30 147.18 380.69 138.11 396.07 C 137.41 397.32 136.59 398.65 136.27 400.04 C 136.21 401.70 137.28 402.68 138.76 403.18 C 141.09 403.83 143.57 403.99 145.95 404.34 C 143.94 410.28 141.42 416.09 138.75 421.76 C 137.73 424.02 136.25 425.88 134.53 427.64 C 126.48 416.37 118.98 404.20 113.58 391.42 C 112.06 388.19 110.68 384.94 109.86 381.45 C 113.52 381.25 118.23 381.39 121.47 379.46 C 123.65 377.42 122.43 375.01 121.14 372.90 C 112.59 360.04 105.49 345.85 101.31 330.96 C 104.68 330.62 109.47 331.38 112.30 329.27 C 113.63 326.88 112.53 324.81 111.27 322.73 C 100.58 305.56 93.87 287.19 88.15 267.89 C 87.22 264.89 86.86 261.40 85.30 258.67 C 84.46 257.20 82.34 256.91 81.13 258.05 C 79.73 259.44 79.29 261.91 78.70 263.74 C 73.63 282.27 68.08 300.26 59.54 317.54 C 58.46 319.76 57.15 321.96 56.35 324.30 C 55.86 326.29 56.01 328.07 58.06 329.01 C 60.81 329.90 63.81 330.06 66.65 330.65 C 62.67 345.45 56.46 359.72 49.08 373.12 C 48.06 374.84 48.06 376.96 49.69 378.29 C 52.40 380.18 56.46 380.43 59.65 380.75 C 57.64 387.69 54.98 394.46 52.05 401.05 C 50.19 405.29 47.80 409.22 46.10 413.53 C 42.09 407.30 38.44 400.02 37.08 392.71 C 39.03 392.38 40.98 392.06 42.93 391.77 C 43.39 390.33 43.72 389.53 42.92 388.14 C 39.86 382.08 36.48 376.27 34.07 369.89 C 31.88 363.98 29.91 357.92 28.06 351.91 C 27.52 350.13 26.80 348.70 25.69 347.22 C 22.58 347.42 22.35 350.04 21.37 352.41 C 17.94 363.53 14.23 374.40 8.70 384.69 C 7.53 386.82 7.10 388.36 7.15 390.80 C 9.05 391.47 10.96 392.06 12.89 392.60 C 10.86 399.95 7.51 407.01 3.47 413.46 C 2.69 415.16 0.99 416.80 2.32 418.65 C 3.89 419.64 5.68 420.33 7.38 421.10 C 5.38 426.07 2.84 430.70 0.00 435.23 L 0.00 0.00 Z" fill="#060709" />
<path d="M 85.30 258.67 C 86.86 261.40 87.22 264.89 88.15 267.89 C 93.87 287.19 100.58 305.56 111.27 322.73 C 112.53 324.81 113.63 326.88 112.30 329.27 C 109.47 331.38 104.68 330.62 101.31 330.96 C 105.49 345.85 112.59 360.04 121.14 372.90 C 122.43 375.01 123.65 377.42 121.47 379.46 C 118.23 381.39 113.52 381.25 109.86 381.45 C 110.68 384.94 112.06 388.19 113.58 391.42 C 118.98 404.20 126.48 416.37 134.53 427.64 C 135.83 429.70 138.29 432.31 137.80 434.89 C 137.50 437.31 135.14 438.45 133.09 439.16 C 129.75 440.18 125.96 439.97 122.49 440.20 L 122.68 440.66 C 125.00 447.21 128.18 453.47 131.44 459.59 C 134.10 464.54 137.37 469.13 139.97 474.10 C 141.28 476.24 139.86 477.59 139.23 479.67 C 134.30 479.58 131.56 476.33 127.37 478.44 C 123.08 480.00 120.22 483.68 115.90 484.62 C 115.06 479.45 113.04 474.52 108.98 471.05 C 106.42 468.98 103.29 467.45 100.04 466.87 C 97.20 466.51 94.20 466.93 91.34 467.11 C 90.75 463.05 90.65 459.09 88.58 455.44 C 84.61 448.56 76.51 444.33 68.57 445.44 C 64.31 445.93 61.31 448.13 57.60 450.01 C 57.01 446.50 56.75 443.24 54.86 440.13 C 53.25 437.57 52.06 434.85 50.67 432.18 C 47.97 430.31 43.57 429.19 41.65 426.40 C 41.03 425.25 40.11 423.36 40.83 422.12 C 42.57 419.16 44.95 416.85 46.10 413.53 C 47.80 409.22 50.19 405.29 52.05 401.05 C 54.98 394.46 57.64 387.69 59.65 380.75 C 56.46 380.43 52.40 380.18 49.69 378.29 C 48.06 376.96 48.06 374.84 49.08 373.12 C 56.46 359.72 62.67 345.45 66.65 330.65 C 63.81 330.06 60.81 329.90 58.06 329.01 C 56.01 328.07 55.86 326.29 56.35 324.30 C 57.15 321.96 58.46 319.76 59.54 317.54 C 68.08 300.26 73.63 282.27 78.70 263.74 C 79.29 261.91 79.73 259.44 81.13 258.05 C 82.34 256.91 84.46 257.20 85.30 258.67 Z" fill="#3a4246" />
<path d="M 1303.57 308.43 C 1305.76 310.63 1304.60 313.94 1304.26 316.64 C 1307.66 317.88 1310.85 318.92 1313.54 321.46 C 1316.38 323.91 1318.08 327.05 1319.66 330.39 C 1321.35 331.61 1324.09 332.02 1323.53 334.66 C 1323.22 336.72 1321.23 336.25 1319.68 336.43 C 1316.16 336.38 1312.66 336.26 1309.14 336.41 C 1309.06 342.96 1309.22 349.51 1309.15 356.06 C 1312.65 356.11 1316.15 356.05 1319.65 356.07 C 1322.33 356.13 1325.06 356.06 1327.72 356.36 C 1329.42 357.78 1329.11 360.02 1329.09 361.99 C 1328.89 364.93 1328.96 367.88 1328.69 370.81 C 1328.10 373.23 1325.67 373.20 1323.64 373.41 C 1318.03 373.36 1312.42 373.50 1306.81 373.30 C 1300.96 373.11 1295.05 373.15 1289.20 373.32 C 1284.84 373.36 1280.49 373.26 1276.14 373.34 C 1275.79 374.93 1275.50 376.52 1275.25 378.12 C 1275.38 376.70 1275.49 375.29 1275.58 373.88 C 1273.44 372.92 1270.40 372.90 1270.37 369.89 C 1270.36 365.78 1270.16 361.54 1270.59 357.46 C 1272.13 355.12 1277.32 356.38 1279.83 356.03 C 1283.14 356.05 1286.45 356.07 1289.77 356.04 C 1289.83 349.49 1289.79 342.94 1289.79 336.39 C 1286.45 336.34 1283.12 336.38 1279.79 336.48 C 1278.56 336.40 1277.37 336.14 1276.17 335.88 C 1276.21 334.74 1276.24 333.60 1276.28 332.46 C 1277.45 331.86 1278.62 331.25 1279.79 330.65 C 1281.13 327.72 1282.31 324.95 1284.66 322.65 C 1287.55 319.64 1291.08 318.17 1294.84 316.58 C 1294.58 314.60 1293.94 312.32 1294.39 310.36 C 1295.52 306.57 1300.98 305.37 1303.57 308.43 Z" fill="#3d4348" />
<path d="M 1289.79 336.39 C 1289.79 342.94 1289.83 349.49 1289.77 356.04 C 1286.45 356.07 1283.14 356.05 1279.83 356.03 C 1279.81 349.51 1279.91 343.00 1279.79 336.48 C 1283.12 336.38 1286.45 336.34 1289.79 336.39 Z" fill="#d3cfc9" />
<path d="M 1293.91 336.31 C 1297.73 336.42 1301.52 336.24 1305.33 336.58 C 1305.23 343.09 1305.30 349.59 1305.28 356.10 C 1301.45 356.11 1297.63 356.10 1293.81 355.91 C 1293.75 349.38 1293.57 342.83 1293.91 336.31 Z" fill="#d3d0ca" />
<path d="M 1309.14 336.41 C 1312.66 336.26 1316.16 336.38 1319.68 336.43 C 1319.61 342.98 1319.79 349.52 1319.65 356.07 C 1316.15 356.05 1312.65 356.11 1309.15 356.06 C 1309.22 349.51 1309.06 342.96 1309.14 336.41 Z" fill="#d2cec9" />
<path d="M 165.63 345.18 C 170.87 363.13 176.72 380.22 186.99 396.02 C 187.87 397.56 189.90 400.74 188.29 402.29 C 185.72 404.09 181.57 403.60 178.57 404.02 C 181.09 412.26 185.02 420.14 189.55 427.45 C 192.01 431.56 194.28 435.61 197.91 438.85 C 197.09 440.62 195.90 442.10 194.70 443.62 C 191.76 443.50 188.85 443.80 185.95 444.22 C 188.01 450.71 191.50 456.81 195.15 462.53 C 193.86 466.41 190.82 469.16 189.50 473.06 C 191.57 475.51 194.28 475.76 197.16 476.81 C 197.44 478.60 197.32 481.01 198.54 482.43 C 200.61 485.08 203.07 487.43 205.29 489.96 C 201.65 492.28 198.10 494.51 195.36 497.93 C 192.55 496.52 189.19 494.93 186.00 494.98 C 183.23 495.17 180.46 496.06 177.77 496.71 C 176.92 493.21 176.30 489.96 173.79 487.21 C 169.06 481.46 160.70 480.39 154.01 482.97 C 150.69 484.13 148.57 486.45 146.15 488.86 C 144.41 485.03 142.51 482.33 139.23 479.67 C 139.86 477.59 141.28 476.24 139.97 474.10 C 137.37 469.13 134.10 464.54 131.44 459.59 C 135.00 455.33 136.90 449.43 138.94 444.30 C 135.32 443.72 131.96 442.90 128.65 441.27 C 126.68 440.25 124.83 440.74 122.68 440.66 L 122.49 440.20 C 125.96 439.97 129.75 440.18 133.09 439.16 C 135.14 438.45 137.50 437.31 137.80 434.89 C 138.29 432.31 135.83 429.70 134.53 427.64 C 136.25 425.88 137.73 424.02 138.75 421.76 C 141.42 416.09 143.94 410.28 145.95 404.34 C 143.57 403.99 141.09 403.83 138.76 403.18 C 137.28 402.68 136.21 401.70 136.27 400.04 C 136.59 398.65 137.41 397.32 138.11 396.07 C 147.18 380.69 153.37 364.30 158.26 347.17 C 158.96 345.26 159.49 342.35 161.65 341.60 C 163.78 340.89 165.14 343.50 165.63 345.18 Z" fill="#23292e" />
<path d="M 25.69 347.22 C 26.80 348.70 27.52 350.13 28.06 351.91 C 29.91 357.92 31.88 363.98 34.07 369.89 C 36.48 376.27 39.86 382.08 42.92 388.14 C 43.72 389.53 43.39 390.33 42.93 391.77 C 40.98 392.06 39.03 392.38 37.08 392.71 C 38.44 400.02 42.09 407.30 46.10 413.53 C 44.95 416.85 42.57 419.16 40.83 422.12 C 40.11 423.36 41.03 425.25 41.65 426.40 C 43.57 429.19 47.97 430.31 50.67 432.18 C 52.06 434.85 53.25 437.57 54.86 440.13 C 56.75 443.24 57.01 446.50 57.60 450.01 C 61.31 448.13 64.31 445.93 68.57 445.44 C 76.51 444.33 84.61 448.56 88.58 455.44 C 90.65 459.09 90.75 463.05 91.34 467.11 C 94.20 466.93 97.20 466.51 100.04 466.87 C 103.29 467.45 106.42 468.98 108.98 471.05 C 113.04 474.52 115.06 479.45 115.90 484.62 C 115.65 487.47 115.23 490.29 114.78 493.11 C 118.70 494.13 122.77 494.04 126.30 495.68 C 134.22 499.56 139.34 508.20 138.80 517.03 C 138.74 520.86 137.29 524.09 135.76 527.52 C 130.97 526.46 125.89 526.47 121.00 525.92 C 110.95 525.15 101.01 523.54 90.95 523.04 C 91.10 516.82 92.40 511.19 87.84 506.14 C 84.05 501.31 78.91 501.27 73.27 501.34 C 73.20 498.10 73.61 494.47 72.65 491.36 C 70.74 486.64 66.57 482.33 61.38 481.45 C 57.19 480.49 53.54 481.60 49.53 482.68 C 48.97 479.07 48.81 475.27 46.93 472.05 C 43.12 465.29 34.92 461.72 27.34 463.43 C 22.85 464.17 19.83 466.84 16.53 469.71 C 15.69 465.91 15.18 462.42 12.79 459.21 C 9.61 454.79 5.06 452.32 0.00 450.61 L 0.00 435.23 C 2.84 430.70 5.38 426.07 7.38 421.10 C 5.68 420.33 3.89 419.64 2.32 418.65 C 0.99 416.80 2.69 415.16 3.47 413.46 C 7.51 407.01 10.86 399.95 12.89 392.60 C 10.96 392.06 9.05 391.47 7.15 390.80 C 7.10 388.36 7.53 386.82 8.70 384.69 C 14.23 374.40 17.94 363.53 21.37 352.41 C 22.35 350.04 22.58 347.42 25.69 347.22 Z" fill="#1b1f22" />
<path d="M 1416.02 354.48 C 1418.40 355.15 1418.55 357.71 1419.36 359.68 C 1423.04 371.91 1427.91 384.31 1435.06 394.96 C 1436.04 396.69 1437.64 398.27 1436.33 400.32 C 1434.26 401.56 1431.24 401.28 1428.89 401.47 C 1430.79 407.28 1433.92 412.74 1436.97 418.01 C 1439.15 421.88 1442.28 425.11 1444.44 428.97 C 1444.37 432.94 1438.59 432.43 1435.89 433.08 C 1439.55 441.77 1444.97 448.70 1450.54 456.09 C 1444.85 456.14 1439.51 457.16 1435.38 461.38 C 1432.01 464.49 1430.75 468.45 1429.59 472.75 C 1425.55 471.79 1422.00 470.56 1417.82 471.65 C 1412.53 472.94 1406.99 476.96 1405.53 482.40 C 1404.99 484.17 1404.48 485.95 1403.92 487.71 C 1402.65 487.49 1401.37 487.28 1400.09 487.06 C 1398.92 486.55 1397.77 486.00 1396.61 485.44 C 1395.63 483.05 1395.07 479.70 1392.66 478.36 C 1389.91 476.59 1386.72 475.39 1383.73 474.07 C 1385.87 469.97 1388.38 466.12 1390.79 462.17 C 1388.03 461.13 1382.64 460.87 1382.56 457.02 C 1384.16 453.57 1387.17 450.57 1389.33 447.41 C 1392.12 442.83 1395.12 438.21 1397.11 433.21 C 1394.90 432.75 1392.50 432.46 1390.41 431.58 C 1388.56 430.94 1389.02 428.22 1389.99 427.00 C 1395.65 419.37 1400.52 410.59 1403.27 401.49 C 1401.05 401.26 1398.63 401.18 1396.52 400.45 C 1395.56 399.64 1395.26 398.83 1395.63 398.01 C 1396.90 395.26 1398.73 392.79 1400.12 390.10 C 1405.74 380.06 1409.43 368.85 1412.95 357.95 C 1413.50 356.25 1414.08 354.87 1416.02 354.48 Z" fill="#374044" />
<path d="M 1483.29 372.21 C 1484.69 372.34 1485.84 371.85 1486.70 373.29 C 1488.43 376.42 1489.21 380.11 1490.53 383.44 C 1493.52 391.32 1497.49 398.73 1502.26 405.67 C 1503.31 407.07 1502.93 407.88 1502.59 409.43 C 1500.83 409.80 1499.08 410.21 1497.33 410.63 C 1499.33 416.85 1503.02 421.93 1506.99 427.01 C 1507.99 428.64 1510.07 430.60 1508.46 432.49 C 1506.84 433.59 1504.71 434.01 1502.88 434.66 C 1503.21 435.46 1503.87 435.99 1504.87 436.26 C 1491.69 441.51 1484.40 457.12 1488.49 470.60 C 1488.81 471.68 1489.15 472.75 1489.49 473.82 C 1485.33 472.69 1481.49 471.53 1477.11 472.25 C 1471.15 473.23 1464.90 476.33 1461.29 481.30 C 1459.23 484.04 1458.58 487.14 1457.61 490.36 C 1453.46 488.97 1449.47 487.98 1445.11 489.19 C 1440.82 490.46 1436.28 493.12 1434.21 497.25 C 1431.71 501.70 1431.39 506.31 1430.97 511.28 C 1417.97 511.72 1405.00 511.38 1392.00 511.52 C 1388.61 511.61 1385.25 511.57 1381.87 511.24 C 1381.06 505.59 1381.96 499.12 1385.52 494.51 C 1389.06 489.97 1394.60 487.99 1400.09 487.06 C 1401.37 487.28 1402.65 487.49 1403.92 487.71 C 1404.48 485.95 1404.99 484.17 1405.53 482.40 C 1406.99 476.96 1412.53 472.94 1417.82 471.65 C 1422.00 470.56 1425.55 471.79 1429.59 472.75 C 1430.75 468.45 1432.01 464.49 1435.38 461.38 C 1439.51 457.16 1444.85 456.14 1450.54 456.09 C 1451.27 456.05 1451.92 455.88 1452.50 455.56 C 1454.77 453.13 1456.46 450.15 1458.50 447.52 C 1461.51 443.54 1464.33 439.57 1465.87 434.75 C 1464.02 434.02 1462.18 433.27 1460.32 432.55 C 1460.23 431.18 1460.09 430.11 1460.95 428.94 C 1464.85 422.95 1468.92 417.21 1471.77 410.53 C 1469.86 409.98 1467.96 409.40 1466.07 408.79 C 1466.19 406.08 1467.76 404.32 1469.12 402.12 C 1473.07 396.11 1476.24 389.57 1478.83 382.85 C 1480.25 379.21 1481.29 375.61 1483.29 372.21 Z" fill="#1b1f22" />
<path d="M 1276.14 373.34 C 1280.49 373.26 1284.84 373.36 1289.20 373.32 C 1284.33 375.30 1278.84 377.35 1274.91 380.92 C 1275.02 379.99 1275.13 379.05 1275.25 378.12 C 1275.50 376.52 1275.79 374.93 1276.14 373.34 Z" fill="#aaa69f" />
<path d="M 1289.20 373.32 C 1295.05 373.15 1300.96 373.11 1306.81 373.30 C 1313.54 374.96 1319.03 378.45 1324.70 382.26 C 1327.83 405.08 1330.32 427.99 1332.74 450.90 C 1332.89 452.68 1333.04 454.45 1333.21 456.23 C 1327.82 458.11 1324.11 461.67 1322.94 467.37 C 1316.96 464.81 1310.48 465.62 1306.18 470.72 C 1303.96 470.67 1301.71 470.58 1299.50 470.70 C 1299.49 465.78 1299.26 460.88 1299.17 455.96 C 1299.11 453.05 1298.12 450.07 1295.37 448.66 C 1292.18 446.73 1288.03 448.03 1286.09 451.09 C 1284.85 453.04 1284.85 455.26 1284.72 457.50 C 1284.59 461.92 1284.26 466.33 1284.21 470.75 C 1277.97 470.50 1271.83 471.29 1265.60 471.26 C 1265.75 469.62 1265.90 467.99 1266.04 466.35 C 1267.13 451.55 1269.00 436.82 1270.36 422.03 C 1271.61 408.30 1273.66 394.65 1274.91 380.92 C 1278.84 377.35 1284.33 375.30 1289.20 373.32 Z" fill="#ccc8c2" />
<path d="M 1306.81 373.30 C 1312.42 373.50 1318.03 373.36 1323.64 373.41 C 1324.05 376.35 1324.36 379.31 1324.70 382.26 C 1319.03 378.45 1313.54 374.96 1306.81 373.30 Z" fill="#afaba5" />
<path d="M 1305.82 389.35 C 1308.40 389.92 1310.29 392.33 1310.32 394.96 C 1310.51 398.69 1310.38 402.45 1310.30 406.18 C 1306.68 406.20 1303.08 406.30 1299.46 406.01 C 1299.55 402.40 1299.30 398.78 1299.45 395.17 C 1299.59 391.95 1302.49 388.91 1305.82 389.35 Z" fill="#3c4247" />
<path d="M 1371.99 403.66 C 1373.99 404.52 1374.25 407.14 1375.03 408.98 C 1377.71 417.65 1381.95 425.43 1386.68 433.12 C 1385.49 434.81 1383.75 434.98 1381.92 435.62 C 1383.39 439.73 1385.46 445.02 1389.33 447.41 C 1387.17 450.57 1384.16 453.57 1382.56 457.02 C 1382.64 460.87 1388.03 461.13 1390.79 462.17 C 1388.38 466.12 1385.87 469.97 1383.73 474.07 C 1382.35 476.29 1380.67 478.22 1378.94 480.17 C 1377.25 477.59 1375.86 474.53 1373.65 472.36 C 1369.89 469.25 1364.26 468.32 1360.00 471.02 C 1357.83 472.54 1356.12 474.77 1354.21 476.60 C 1350.43 475.30 1347.11 474.14 1343.34 476.34 C 1339.47 478.15 1338.78 481.46 1336.62 484.73 C 1334.68 485.62 1332.10 485.33 1329.99 485.47 C 1323.51 485.45 1317.33 486.52 1310.98 487.68 C 1305.49 488.62 1300.13 491.63 1295.22 494.22 C 1294.04 490.56 1292.72 487.48 1294.81 483.79 C 1296.60 480.08 1299.83 479.52 1303.43 478.49 C 1303.99 475.68 1304.36 473.05 1306.18 470.72 C 1310.48 465.62 1316.96 464.81 1322.94 467.37 C 1324.11 461.67 1327.82 458.11 1333.21 456.23 C 1333.04 454.45 1332.89 452.68 1332.74 450.90 C 1333.25 452.49 1333.84 454.06 1334.40 455.63 C 1338.09 455.89 1342.13 455.71 1345.43 457.56 C 1348.27 459.05 1350.12 461.76 1352.13 464.17 C 1354.32 461.07 1356.54 458.11 1357.88 454.51 C 1356.29 453.57 1354.71 452.61 1353.13 451.63 C 1356.14 446.26 1360.02 441.74 1361.92 435.73 C 1360.44 435.21 1358.95 434.69 1357.45 434.19 C 1357.32 432.24 1358.35 430.91 1359.28 429.30 C 1363.48 422.61 1366.50 415.38 1368.85 407.86 C 1369.65 406.04 1369.72 404.16 1371.99 403.66 Z" fill="#21272c" />
<path d="M 215.51 407.43 C 219.37 420.40 224.08 433.86 232.02 445.00 C 232.90 446.25 233.03 447.30 232.86 448.80 C 231.15 450.56 227.49 450.25 225.19 450.66 C 227.84 457.39 231.01 463.87 235.27 469.74 C 236.29 471.44 237.94 472.83 237.22 474.98 C 235.66 477.21 231.52 476.80 229.10 477.31 C 231.15 483.19 234.08 488.40 237.31 493.69 C 233.11 491.15 229.59 488.29 224.60 487.39 C 217.91 485.60 211.41 487.09 205.29 489.96 C 203.07 487.43 200.61 485.08 198.54 482.43 C 197.32 481.01 197.44 478.60 197.16 476.81 C 194.28 475.76 191.57 475.51 189.50 473.06 C 190.82 469.16 193.86 466.41 195.15 462.53 C 196.71 458.55 199.13 455.02 200.53 450.95 C 198.31 450.19 195.11 450.27 193.36 448.67 C 192.74 446.63 193.65 445.29 194.70 443.62 C 195.90 442.10 197.09 440.62 197.91 438.85 C 199.40 435.42 201.09 432.10 202.74 428.76 C 205.97 421.62 207.87 413.89 210.67 406.61 C 211.90 404.18 214.94 404.85 215.51 407.43 Z" fill="#384145" />
<path d="M 1563.00 428.83 L 1563.00 523.11 C 1557.33 523.00 1551.66 522.76 1546.00 522.46 C 1539.67 522.11 1533.35 522.62 1527.02 522.19 C 1524.73 519.82 1522.78 516.85 1520.11 514.91 C 1516.51 512.59 1512.30 511.34 1508.00 511.38 C 1482.33 511.26 1456.65 511.44 1430.97 511.28 C 1431.39 506.31 1431.71 501.70 1434.21 497.25 C 1436.28 493.12 1440.82 490.46 1445.11 489.19 C 1449.47 487.98 1453.46 488.97 1457.61 490.36 C 1458.58 487.14 1459.23 484.04 1461.29 481.30 C 1464.90 476.33 1471.15 473.23 1477.11 472.25 C 1481.49 471.53 1485.33 472.69 1489.49 473.82 C 1489.15 472.75 1488.81 471.68 1488.49 470.60 C 1484.40 457.12 1491.69 441.51 1504.87 436.26 C 1509.25 434.37 1513.71 433.86 1518.42 434.54 C 1522.46 435.17 1525.49 437.18 1529.02 439.05 C 1531.18 435.43 1532.97 432.01 1536.55 429.56 C 1544.43 424.01 1554.78 423.90 1563.00 428.83 Z" fill="#242a2f" />
<path d="M 122.68 440.66 C 124.83 440.74 126.68 440.25 128.65 441.27 C 131.96 442.90 135.32 443.72 138.94 444.30 C 136.90 449.43 135.00 455.33 131.44 459.59 C 128.18 453.47 125.00 447.21 122.68 440.66 Z" fill="#08080a" />
<path d="M 194.70 443.62 C 193.65 445.29 192.74 446.63 193.36 448.67 C 195.11 450.27 198.31 450.19 200.53 450.95 C 199.13 455.02 196.71 458.55 195.15 462.53 C 191.50 456.81 188.01 450.71 185.95 444.22 C 188.85 443.80 191.76 443.50 194.70 443.62 Z" fill="#08080a" />
<path d="M 1295.37 448.66 C 1298.12 450.07 1299.11 453.05 1299.17 455.96 C 1299.26 460.88 1299.49 465.78 1299.50 470.70 C 1294.31 471.65 1289.40 471.35 1284.21 470.75 C 1284.26 466.33 1284.59 461.92 1284.72 457.50 C 1284.85 455.26 1284.85 453.04 1286.09 451.09 C 1288.03 448.03 1292.18 446.73 1295.37 448.66 Z" fill="#393f44" />
<path d="M 0.00 450.61 C 5.06 452.32 9.61 454.79 12.79 459.21 C 15.18 462.42 15.69 465.91 16.53 469.71 C 19.83 466.84 22.85 464.17 27.34 463.43 C 34.92 461.72 43.12 465.29 46.93 472.05 C 48.81 475.27 48.97 479.07 49.53 482.68 C 53.54 481.60 57.19 480.49 61.38 481.45 C 66.57 482.33 70.74 486.64 72.65 491.36 C 73.61 494.47 73.20 498.10 73.27 501.34 C 78.91 501.27 84.05 501.31 87.84 506.14 C 92.40 511.19 91.10 516.82 90.95 523.04 C 81.60 522.61 72.32 521.28 62.98 520.71 C 47.99 519.79 32.99 519.06 18.00 518.11 C 11.99 517.81 5.99 517.85 0.00 517.15 L 0.00 450.61 Z" fill="#252b30" />
<path d="M 1257.16 467.94 C 1259.81 467.09 1262.37 466.26 1265.20 466.37 C 1265.12 467.94 1265.05 469.52 1264.99 471.10 C 1261.30 472.75 1256.65 472.26 1252.63 472.46 C 1242.22 472.91 1231.96 474.56 1221.88 477.20 C 1223.17 469.77 1228.10 463.79 1235.16 461.16 C 1243.08 458.10 1252.78 460.23 1257.16 467.94 Z" fill="#333b3f" />
<path d="M 1265.20 466.37 L 1266.04 466.35 C 1265.90 467.99 1265.75 469.62 1265.60 471.26 C 1271.83 471.29 1277.97 470.50 1284.21 470.75 C 1289.40 471.35 1294.31 471.65 1299.50 470.70 C 1301.71 470.58 1303.96 470.67 1306.18 470.72 C 1304.36 473.05 1303.99 475.68 1303.43 478.49 C 1299.83 479.52 1296.60 480.08 1294.81 483.79 C 1292.72 487.48 1294.04 490.56 1295.22 494.22 C 1291.15 497.99 1287.43 501.90 1284.88 506.88 C 1279.92 516.10 1278.84 526.60 1275.95 535.96 C 1274.64 540.12 1271.78 542.25 1267.91 543.88 C 1259.51 547.46 1252.88 553.64 1248.84 561.84 C 1245.56 567.94 1244.32 574.53 1241.79 580.89 C 1236.16 581.64 1230.73 581.08 1225.00 581.22 C 1192.21 581.44 1159.41 581.00 1126.62 581.44 C 1128.47 576.46 1131.60 571.85 1134.31 567.25 C 1140.48 559.08 1148.49 552.24 1157.62 547.59 C 1160.90 545.81 1164.44 544.50 1167.66 542.62 C 1170.52 540.98 1171.84 538.04 1173.16 535.17 C 1176.94 526.43 1180.08 517.50 1184.48 509.02 C 1186.77 504.57 1189.54 500.50 1192.45 496.44 C 1199.70 486.71 1210.22 480.26 1221.88 477.20 C 1231.96 474.56 1242.22 472.91 1252.63 472.46 C 1256.65 472.26 1261.30 472.75 1264.99 471.10 C 1265.05 469.52 1265.12 467.94 1265.20 466.37 Z" fill="#464c50" />
<path d="M 1373.65 472.36 C 1375.86 474.53 1377.25 477.59 1378.94 480.17 C 1380.67 478.22 1382.35 476.29 1383.73 474.07 C 1386.72 475.39 1389.91 476.59 1392.66 478.36 C 1395.07 479.70 1395.63 483.05 1396.61 485.44 C 1397.77 486.00 1398.92 486.55 1400.09 487.06 C 1394.60 487.99 1389.06 489.97 1385.52 494.51 C 1381.96 499.12 1381.06 505.59 1381.87 511.24 C 1385.25 511.57 1388.61 511.61 1392.00 511.52 C 1405.00 511.38 1417.97 511.72 1430.97 511.28 C 1456.65 511.44 1482.33 511.26 1508.00 511.38 C 1512.30 511.34 1516.51 512.59 1520.11 514.91 C 1522.78 516.85 1524.73 519.82 1527.02 522.19 C 1533.35 522.62 1539.67 522.11 1546.00 522.46 C 1551.66 522.76 1557.33 523.00 1563.00 523.11 L 1563.00 591.10 C 1535.01 590.96 1506.99 591.11 1479.00 591.14 C 1472.51 591.26 1466.11 590.41 1459.62 590.97 C 1456.11 582.40 1449.43 574.80 1440.76 571.28 C 1430.64 567.38 1419.46 571.17 1412.13 578.70 C 1410.33 575.43 1409.13 571.90 1407.42 568.60 C 1401.91 558.63 1394.58 550.05 1384.54 544.46 C 1372.81 537.88 1358.31 536.42 1345.20 538.61 C 1326.02 541.89 1307.94 551.72 1297.69 568.68 C 1296.79 570.34 1295.86 571.93 1294.62 573.36 C 1287.66 569.75 1278.96 570.28 1272.27 574.27 C 1266.86 577.50 1261.98 581.89 1258.56 587.21 C 1252.87 586.56 1247.23 586.97 1241.53 586.83 C 1241.60 585.23 1241.67 583.63 1241.74 582.03 C 1237.16 581.63 1232.59 581.78 1228.00 581.84 C 1195.67 581.98 1163.31 581.65 1130.98 582.00 C 1129.51 581.97 1128.07 581.72 1126.62 581.44 C 1159.41 581.00 1192.21 581.44 1225.00 581.22 C 1230.73 581.08 1236.16 581.64 1241.79 580.89 C 1244.32 574.53 1245.56 567.94 1248.84 561.84 C 1252.88 553.64 1259.51 547.46 1267.91 543.88 C 1271.78 542.25 1274.64 540.12 1275.95 535.96 C 1278.84 526.60 1279.92 516.10 1284.88 506.88 C 1287.43 501.90 1291.15 497.99 1295.22 494.22 C 1300.13 491.63 1305.49 488.62 1310.98 487.68 C 1317.33 486.52 1323.51 485.45 1329.99 485.47 C 1332.10 485.33 1334.68 485.62 1336.62 484.73 C 1338.78 481.46 1339.47 478.15 1343.34 476.34 C 1347.11 474.14 1350.43 475.30 1354.21 476.60 C 1356.12 474.77 1357.83 472.54 1360.00 471.02 C 1364.26 468.32 1369.89 469.25 1373.65 472.36 Z" fill="#30393d" />
<path d="M 139.23 479.67 C 142.51 482.33 144.41 485.03 146.15 488.86 C 148.57 486.45 150.69 484.13 154.01 482.97 C 160.70 480.39 169.06 481.46 173.79 487.21 C 176.30 489.96 176.92 493.21 177.77 496.71 C 180.46 496.06 183.23 495.17 186.00 494.98 C 189.19 494.93 192.55 496.52 195.36 497.93 C 199.21 501.05 202.03 505.10 202.73 510.09 C 202.92 512.21 202.70 514.41 202.55 516.53 C 206.00 516.09 209.34 515.40 212.78 516.27 C 217.38 517.39 221.06 520.67 223.21 524.82 C 221.71 528.08 221.72 531.23 221.80 534.75 C 220.00 535.15 218.24 535.55 216.38 535.44 C 209.51 535.05 202.64 534.41 195.85 533.30 C 185.74 531.44 175.18 531.39 165.02 529.85 C 155.39 528.60 145.24 529.52 135.76 527.52 C 137.29 524.09 138.74 520.86 138.80 517.03 C 139.34 508.20 134.22 499.56 126.30 495.68 C 122.77 494.04 118.70 494.13 114.78 493.11 C 115.23 490.29 115.65 487.47 115.90 484.62 C 120.22 483.68 123.08 480.00 127.37 478.44 C 131.56 476.33 134.30 479.58 139.23 479.67 Z" fill="#353d41" />
<path d="M 270.58 487.44 C 277.31 490.01 280.82 495.63 283.08 502.17 C 286.70 499.26 290.16 496.57 294.86 495.70 C 302.67 493.75 310.38 497.91 314.69 504.35 C 316.64 507.26 317.00 510.59 317.75 513.95 C 321.15 512.55 324.38 510.54 327.98 510.15 C 336.06 508.80 344.47 514.11 347.34 521.66 C 348.83 525.25 348.51 528.69 348.58 532.49 C 353.36 532.37 357.57 531.59 361.96 534.01 C 370.58 538.36 374.91 548.71 371.45 557.83 C 366.37 556.84 362.46 558.91 357.68 560.22 C 346.90 549.19 332.21 540.40 316.77 538.35 C 306.14 536.81 295.49 539.26 286.49 545.07 C 278.23 542.85 269.33 542.54 260.86 541.37 C 262.18 541.14 263.49 540.89 264.81 540.63 C 268.13 531.94 262.95 521.13 254.72 517.22 C 251.08 515.21 247.30 515.03 243.26 514.61 C 243.13 509.79 243.21 505.10 242.58 500.32 C 246.85 489.48 259.50 483.19 270.58 487.44 Z" fill="#242a2f" />
<path d="M 224.60 487.39 C 229.59 488.29 233.11 491.15 237.31 493.69 C 238.93 496.01 240.66 498.23 242.58 500.32 C 243.21 505.10 243.13 509.79 243.26 514.61 C 247.30 515.03 251.08 515.21 254.72 517.22 C 262.95 521.13 268.13 531.94 264.81 540.63 C 263.49 540.89 262.18 541.14 260.86 541.37 C 248.99 539.51 237.11 537.73 225.15 536.46 C 224.67 532.39 225.00 528.64 223.21 524.82 C 221.06 520.67 217.38 517.39 212.78 516.27 C 209.34 515.40 206.00 516.09 202.55 516.53 C 202.70 514.41 202.92 512.21 202.73 510.09 C 202.03 505.10 199.21 501.05 195.36 497.93 C 198.10 494.51 201.65 492.28 205.29 489.96 C 211.41 487.09 217.91 485.60 224.60 487.39 Z" fill="#1c2023" />
<path d="M 1160.00 505.88 C 1168.21 506.53 1176.37 507.58 1184.48 509.02 C 1180.08 517.50 1176.94 526.43 1173.16 535.17 C 1171.84 538.04 1170.52 540.98 1167.66 542.62 C 1164.44 544.50 1160.90 545.81 1157.62 547.59 C 1148.49 552.24 1140.48 559.08 1134.31 567.25 C 1127.52 566.94 1120.78 567.72 1114.00 567.58 C 1105.33 567.50 1096.67 567.67 1088.00 567.56 C 1082.93 567.45 1078.07 568.57 1073.00 567.77 C 1056.36 567.29 1039.65 567.78 1023.00 567.53 C 1017.53 567.32 1012.46 568.95 1006.99 567.86 C 997.04 567.24 986.98 567.77 977.00 567.52 C 972.58 567.31 968.26 568.55 963.90 568.00 C 957.67 567.28 951.32 567.39 945.07 567.96 C 941.28 568.38 937.80 567.18 934.00 567.63 C 931.22 567.95 928.56 568.49 925.75 568.11 C 922.43 567.66 919.21 568.26 915.89 568.26 C 912.15 568.30 909.07 566.95 905.48 568.80 C 900.22 566.45 893.01 567.26 888.32 570.65 C 887.80 570.07 887.28 569.48 886.76 568.89 C 882.96 568.24 879.16 567.60 875.34 567.10 C 883.73 556.89 897.71 551.30 910.25 548.32 C 925.47 544.53 940.46 544.55 956.00 543.77 C 964.96 544.03 974.21 540.51 982.63 537.60 C 1000.33 531.14 1019.23 528.83 1038.00 530.14 C 1044.65 530.28 1051.37 531.12 1058.01 530.74 C 1064.44 530.24 1069.70 527.43 1075.04 524.06 C 1082.11 519.65 1089.52 515.21 1097.35 512.34 C 1117.98 504.81 1138.37 504.96 1160.00 505.88 Z" fill="#30363b" />
<path d="M 0.00 517.15 C 5.99 517.85 11.99 517.81 18.00 518.11 C 32.99 519.06 47.99 519.79 62.98 520.71 C 72.32 521.28 81.60 522.61 90.95 523.04 C 101.01 523.54 110.95 525.15 121.00 525.92 C 125.89 526.47 130.97 526.46 135.76 527.52 C 145.24 529.52 155.39 528.60 165.02 529.85 C 175.18 531.39 185.74 531.44 195.85 533.30 C 202.64 534.41 209.51 535.05 216.38 535.44 C 218.24 535.55 220.00 535.15 221.80 534.75 C 221.72 531.23 221.71 528.08 223.21 524.82 C 225.00 528.64 224.67 532.39 225.15 536.46 C 237.11 537.73 248.99 539.51 260.86 541.37 C 269.33 542.54 278.23 542.85 286.49 545.07 C 274.74 553.04 266.32 565.30 262.59 578.95 C 257.98 575.17 253.04 572.15 247.04 571.27 C 233.89 568.65 220.19 579.14 217.73 591.98 C 217.57 593.80 216.93 596.08 218.77 597.25 C 221.64 598.99 225.21 599.74 228.45 600.49 C 237.79 602.37 247.49 602.77 257.00 602.59 C 260.98 602.46 265.18 602.30 269.03 601.20 C 271.52 600.66 270.42 597.69 272.48 596.70 C 283.97 600.85 295.82 602.99 307.77 605.32 C 326.65 608.43 346.96 610.59 366.03 608.16 C 369.46 607.31 375.47 606.85 377.19 603.31 C 380.17 603.87 383.16 604.35 386.19 604.60 C 394.00 605.43 401.56 606.20 409.40 605.11 C 410.13 601.67 408.28 598.32 406.44 595.54 C 402.68 590.12 396.72 586.41 390.00 586.43 C 385.06 586.22 380.86 588.26 376.97 591.10 C 376.46 590.76 375.95 590.44 375.43 590.12 C 372.09 578.79 365.77 568.75 357.68 560.22 C 362.46 558.91 366.37 556.84 371.45 557.83 C 370.76 559.45 370.17 561.07 369.74 562.78 C 376.73 564.38 383.75 566.04 390.82 567.22 C 394.52 567.97 398.01 569.26 401.56 570.49 C 406.87 572.33 412.10 572.99 417.69 574.36 C 427.17 576.71 436.53 579.44 445.92 582.07 C 462.96 586.34 479.67 591.89 496.68 596.24 C 502.08 598.38 507.69 599.84 513.14 601.80 C 518.29 603.66 523.71 604.34 528.85 606.20 C 537.09 609.28 545.70 610.85 553.89 614.11 C 564.89 616.81 575.47 620.83 586.38 623.85 C 632.66 637.60 679.58 649.64 727.00 658.84 C 747.91 662.62 768.94 666.61 790.11 668.63 C 792.91 668.93 795.67 669.47 798.43 670.00 L 0.00 670.00 L 0.00 517.15 Z" fill="#313a3e" />
<path d="M 316.77 538.35 C 332.21 540.40 346.90 549.19 357.68 560.22 C 365.77 568.75 372.09 578.79 375.43 590.12 C 376.72 594.43 377.19 598.83 377.19 603.31 C 375.47 606.85 369.46 607.31 366.03 608.16 C 346.96 610.59 326.65 608.43 307.77 605.32 C 295.82 602.99 283.97 600.85 272.48 596.70 C 270.23 594.21 270.03 591.31 268.68 588.30 C 267.16 584.92 264.99 581.77 262.59 578.95 C 266.32 565.30 274.74 553.04 286.49 545.07 C 295.49 539.26 306.14 536.81 316.77 538.35 Z" fill="#a5a29c" />
<path d="M 1345.20 538.61 C 1358.31 536.42 1372.81 537.88 1384.54 544.46 C 1394.58 550.05 1401.91 558.63 1407.42 568.60 C 1409.13 571.90 1410.33 575.43 1412.13 578.70 C 1407.07 583.87 1403.75 590.15 1402.00 597.15 C 1377.68 597.18 1353.31 597.20 1328.99 597.16 C 1323.31 596.67 1317.79 596.68 1312.10 596.87 C 1309.70 591.16 1307.65 584.18 1303.22 579.78 C 1300.76 577.12 1297.80 575.06 1294.62 573.36 C 1295.86 571.93 1296.79 570.34 1297.69 568.68 C 1307.94 551.72 1326.02 541.89 1345.20 538.61 Z" fill="#8b8985" />
<path d="M 390.82 567.22 C 400.87 566.50 410.92 567.43 421.00 567.10 C 572.44 567.06 723.90 567.12 875.34 567.10 C 879.16 567.60 882.96 568.24 886.76 568.89 C 887.28 569.48 887.80 570.07 888.32 570.65 C 893.01 567.26 900.22 566.45 905.48 568.80 C 909.07 566.95 912.15 568.30 915.89 568.26 C 919.21 568.26 922.43 567.66 925.75 568.11 C 928.56 568.49 931.22 567.95 934.00 567.63 C 937.80 567.18 941.28 568.38 945.07 567.96 C 951.32 567.39 957.67 567.28 963.90 568.00 C 968.26 568.55 972.58 567.31 977.00 567.52 C 986.98 567.77 997.04 567.24 1006.99 567.86 C 1012.46 568.95 1017.53 567.32 1023.00 567.53 C 1039.65 567.78 1056.36 567.29 1073.00 567.77 C 1078.07 568.57 1082.93 567.45 1088.00 567.56 C 1096.67 567.67 1105.33 567.50 1114.00 567.58 C 1120.78 567.72 1127.52 566.94 1134.31 567.25 C 1131.60 571.85 1128.47 576.46 1126.62 581.44 C 1128.07 581.72 1129.51 581.97 1130.98 582.00 C 1163.31 581.65 1195.67 581.98 1228.00 581.84 C 1232.59 581.78 1237.16 581.63 1241.74 582.03 C 1241.67 583.63 1241.60 585.23 1241.53 586.83 C 1247.23 586.97 1252.87 586.56 1258.56 587.21 C 1256.84 589.92 1255.34 592.76 1254.23 595.78 C 1249.33 594.22 1245.23 595.90 1240.00 595.76 C 1202.67 595.61 1165.33 595.96 1128.00 595.73 C 1080.03 596.01 1031.98 595.70 984.00 595.85 C 825.93 595.88 668.05 595.77 510.00 595.75 C 505.53 595.65 501.14 595.83 496.68 596.24 C 479.67 591.89 462.96 586.34 445.92 582.07 C 436.53 579.44 427.17 576.71 417.69 574.36 C 412.10 572.99 406.87 572.33 401.56 570.49 C 398.01 569.26 394.52 567.97 390.82 567.22 Z" fill="#20262b" />
<path d="M 1440.76 571.28 C 1449.43 574.80 1456.11 582.40 1459.62 590.97 C 1460.27 592.60 1460.90 594.24 1461.45 595.90 C 1461.88 598.00 1461.90 600.11 1461.82 602.24 C 1445.05 604.03 1427.83 603.20 1411.00 602.66 C 1407.90 602.34 1404.17 602.79 1401.38 601.35 C 1401.57 599.94 1401.77 598.55 1402.00 597.15 C 1403.75 590.15 1407.07 583.87 1412.13 578.70 C 1419.46 571.17 1430.64 567.38 1440.76 571.28 Z" fill="#a5a19c" />
<path d="M 247.04 571.27 C 253.04 572.15 257.98 575.17 262.59 578.95 C 264.99 581.77 267.16 584.92 268.68 588.30 C 270.03 591.31 270.23 594.21 272.48 596.70 C 270.42 597.69 271.52 600.66 269.03 601.20 C 265.18 602.30 260.98 602.46 257.00 602.59 C 247.49 602.77 237.79 602.37 228.45 600.49 C 225.21 599.74 221.64 598.99 218.77 597.25 C 216.93 596.08 217.57 593.80 217.73 591.98 C 220.19 579.14 233.89 568.65 247.04 571.27 Z" fill="#868482" />
<path d="M 1294.62 573.36 C 1297.80 575.06 1300.76 577.12 1303.22 579.78 C 1307.65 584.18 1309.70 591.16 1312.10 596.87 C 1312.01 598.24 1312.95 601.76 1310.96 602.07 C 1306.36 602.73 1301.64 602.88 1297.01 603.13 C 1282.45 603.19 1267.73 603.09 1253.25 601.57 C 1253.34 599.56 1253.64 597.71 1254.23 595.78 C 1255.34 592.76 1256.84 589.92 1258.56 587.21 C 1261.98 581.89 1266.86 577.50 1272.27 574.27 C 1278.96 570.28 1287.66 569.75 1294.62 573.36 Z" fill="#a6a39d" />
<path d="M 390.00 586.43 C 396.72 586.41 402.68 590.12 406.44 595.54 C 408.28 598.32 410.13 601.67 409.40 605.11 C 401.56 606.20 394.00 605.43 386.19 604.60 C 385.55 599.02 381.14 594.48 376.97 591.10 C 380.86 588.26 385.06 586.22 390.00 586.43 Z" fill="#8c8985" />
<path d="M 375.43 590.12 C 375.95 590.44 376.46 590.76 376.97 591.10 C 381.14 594.48 385.55 599.02 386.19 604.60 C 383.16 604.35 380.17 603.87 377.19 603.31 C 377.19 598.83 376.72 594.43 375.43 590.12 Z" fill="#7e7c78" />
<path d="M 1459.62 590.97 C 1466.11 590.41 1472.51 591.26 1479.00 591.14 C 1506.99 591.11 1535.01 590.96 1563.00 591.10 L 1563.00 596.00 C 1534.00 595.76 1505.00 596.05 1476.00 595.87 C 1471.02 595.87 1466.39 595.11 1461.45 595.90 C 1460.90 594.24 1460.27 592.60 1459.62 590.97 Z" fill="#23292e" />
<path d="M 1254.23 595.78 C 1253.64 597.71 1253.34 599.56 1253.25 601.57 C 1267.73 603.09 1282.45 603.19 1297.01 603.13 C 1301.64 602.88 1306.36 602.73 1310.96 602.07 C 1312.95 601.76 1312.01 598.24 1312.10 596.87 C 1317.79 596.68 1323.31 596.67 1328.99 597.16 C 1353.31 597.20 1377.68 597.18 1402.00 597.15 C 1401.77 598.55 1401.57 599.94 1401.38 601.35 C 1404.17 602.79 1407.90 602.34 1411.00 602.66 C 1427.83 603.20 1445.05 604.03 1461.82 602.24 C 1461.90 600.11 1461.88 598.00 1461.45 595.90 C 1466.39 595.11 1471.02 595.87 1476.00 595.87 C 1505.00 596.05 1534.00 595.76 1563.00 596.00 L 1563.00 622.67 C 1559.27 622.91 1555.71 623.38 1551.97 623.02 C 1545.62 622.42 1539.37 622.81 1533.00 622.69 C 1471.33 622.67 1409.67 622.69 1348.00 622.69 C 1342.58 623.14 1337.42 622.97 1332.00 622.68 C 1259.02 622.64 1185.98 622.75 1113.00 622.63 C 1105.92 622.33 1099.07 623.68 1092.00 622.69 C 927.01 622.57 761.99 622.75 597.00 622.68 C 593.31 622.61 589.85 622.25 586.38 623.85 C 575.47 620.83 564.89 616.81 553.89 614.11 C 545.70 610.85 537.09 609.28 528.85 606.20 C 523.71 604.34 518.29 603.66 513.14 601.80 C 507.69 599.84 502.08 598.38 496.68 596.24 C 501.14 595.83 505.53 595.65 510.00 595.75 C 668.05 595.77 825.93 595.88 984.00 595.85 C 1031.98 595.70 1080.03 596.01 1128.00 595.73 C 1165.33 595.96 1202.67 595.61 1240.00 595.76 C 1245.23 595.90 1249.33 594.22 1254.23 595.78 Z" fill="#2d3339" />
<path d="M 597.00 622.68 C 761.99 622.75 927.01 622.57 1092.00 622.69 C 1099.07 623.68 1105.92 622.33 1113.00 622.63 C 1185.98 622.75 1259.02 622.64 1332.00 622.68 C 1337.42 622.97 1342.58 623.14 1348.00 622.69 C 1409.67 622.69 1471.33 622.67 1533.00 622.69 C 1539.37 622.81 1545.62 622.42 1551.97 623.02 C 1555.71 623.38 1559.27 622.91 1563.00 622.67 L 1563.00 670.00 L 798.43 670.00 C 795.67 669.47 792.91 668.93 790.11 668.63 C 768.94 666.61 747.91 662.62 727.00 658.84 C 679.58 649.64 632.66 637.60 586.38 623.85 C 589.85 622.25 593.31 622.61 597.00 622.68 Z" fill="#21272c" />
</svg>