<?xml version="1.0" encoding="UTF-8"?>
<svg id="Layer_1" data-name="Layer 1" xmlns="http://www.w3.org/2000/svg" viewBox="0 0 2688 1152">
  <defs>
    <style>
      .cls-1 {
        fill: #313a3e;
      }

      .cls-2 {
        fill: #3a4246;
      }

      .cls-3 {
        fill: #30353c;
      }

      .cls-4 {
        fill: #1b1f22;
      }

      .cls-5 {
        fill: #454b4f;
      }

      .cls-6 {
        fill: #23292e;
      }

      .cls-7 {
        fill: #20262b;
      }

      .cls-8 {
        fill: #7f7e7a;
      }

      .cls-9 {
        fill: #b1ada7;
      }

      .cls-10 {
        fill: #cbc8c2;
      }

      .cls-11 {
        fill: #878682;
      }

      .cls-12 {
        fill: #242a2f;
      }

      .cls-13 {
        fill: #8a8782;
      }

      .cls-14 {
        fill: #3b4347;
      }

      .cls-15 {
        fill: #252b30;
      }

      .cls-16 {
        fill: #353d41;
      }

      .cls-17 {
        fill: #1d2125;
      }

      .cls-18 {
        fill: #1c2023;
      }

      .cls-19 {
        fill: #191d20;
      }

      .cls-20 {
        fill: #8d8c88;
      }

      .cls-21 {
        fill: #22282c;
      }

      .cls-22 {
        fill: #7f7a78;
      }

      .cls-23 {
        fill: #3e4448;
      }

      .cls-24 {
        fill: #070708;
      }

      .cls-25 {
        fill: #a5a19c;
      }

      .cls-26 {
        fill: #31383d;
      }

      .cls-27 {
        fill: #2d3338;
      }

      .cls-28 {
        fill: #2d333a;
      }

      .cls-29 {
        fill: #333b3f;
      }

      .cls-30 {
        fill: #1f252a;
      }
    </style>
  </defs>
  <rect class="cls-24" width="2688" height="1152"/>
  <path class="cls-7" d="M2688,963.68v188.32H0v-180.95l1505.38,4.3s-1.91-5.26,27.84-20.95c29.76-15.69,57.78-16.71,102.1-19.71,44.32-3.01,39.39-5.2,72.5-15.05,33.1-9.85,62.1-10.4,93.83-6.29,31.74,4.1,44.17-12.34,82.46-30.72,38.29-18.37,100.57-15.31,178.16-3.57,67.94,10.28,515.36,69.92,625.73,84.62Z"/>
  <path class="cls-3" d="M2688,963.68v4.41l-1182.62,7.26s-1.91-5.26,27.84-20.95c29.76-15.69,57.78-16.71,102.1-19.71,44.32-3.01,39.39-5.2,72.5-15.05,33.1-9.85,62.1-10.4,93.83-6.29,31.74,4.1,44.17-12.34,82.46-30.72,38.29-18.37,100.57-15.31,178.16-3.57,67.94,10.28,515.36,69.92,625.73,84.62Z"/>
  <path class="cls-6" d="M504.06,1047.77s119.82-52.83,134.38-85.91-18.01-50.97-38.62-44.68c0,0,7.12-18.47-10.58-33.32s-42.55.99-42.55.99c0,0,1.76-21.66-21-30.46s-38.15,10.12-38.15,10.12c0,0-6.27-29.91-33.76-29.14s-40.65,24.15-44.09,38.96-26.5,114.43-26.5,114.43l120.87,59.01Z"/>
  <path class="cls-14" d="M400.17,885.56s11.78-27.05,8.32-36.06-14.72-29.29-14.72-29.29c0,0,14.99,1.82,15.35-4.48s-14.42-22.78-17.25-29-5.49-12.04-5.49-12.04c0,0,14.54,2.1,13.33-5.41s-9.93-18.01-15.19-30.85-12.52-35.14-14.94-40.71-7.27-1.62-9.45,9.45-11.95,30.61-17.93,43.21-11.23,14.54-9.69,21,13.17,1.37,13.17,1.37c0,0-9.53,19.95-15.91,32.31s-2.1,14.38,10.9,13.97c0,0-14.17,12.56-20.58,25.02s-5.92,107.18-5,107.49,9.85.92,13.85,1.85,22.47-1.54,29.24-8,41.99-59.84,41.99-59.84Z"/>
  <path class="cls-21" d="M371.59,885.73s-31.68-56.62-35.92-66.69,1.35-16.55-3.57-31.32-12.75-25.06-12.75-25.06c0,0,22.35,1.09,17.5-10.59s-6.78-8.75-17.41-28.22-12.04-30.35-12.04-30.35c0,0,19.72,5.32,17.61-5.92s-14.22-19.6-23.34-45.53-15.85-52.25-20.27-54.75-7.11,4.23-8.45,13.54-12.2,37.17-24.21,59.84-17.29,25.74-12.68,31.03,14.41,3.51,14.41,3.51c0,0-5.57,17.81-15.66,36.35s-16.04,27.47-9.22,30.16,14.22,1.44,14.22,1.44c0,0-8.82,21.23-17.14,37.17s-3.28,94.14-3.28,94.14l152.2-8.75Z"/>
  <path class="cls-2" d="M204.2,875.81s44.62-38.55,35.75-63.16-18.03-26.61-29.76-55.52c0,0,12.48,1.52,22.06-3.27s-.49-16.46-6.14-26.9-8.35-11.92-20.27-33.78-17.08-36-17.08-36c0,0,8.11-.49,14.99-2.7s7.99-5.53,4.42-11.79-13.39-25.31-22.73-45.33-11.55-27.64-11.55-27.64c0,0,12.9-1.23,17.94-4.18s2.33-8.23-4.67-20.27c-7-12.04-13.76-20.64-25.92-56.14-12.16-35.5-12.9-46.19-17.57-46.81s-7,10.2-10.2,20.02-16.34,51.97-28.38,76.17-8.97,27.48-2.12,28.38c6.85.9,12.36,1.02,12.36,1.02,0,0-10.89,32.34-19.15,50.84s-14.92,22.28-12.04,30.22,19.47,5.12,19.47,5.12c0,0-13.58,40.79-23.63,57.7s-24.42,18.13-21.72,32.1,31.09-3.27,31.09-3.27c0,0-.9,58.7-6.31,116.38s25.44,108.53,25.44,108.53l128.18-16.27-32.47-73.45Z"/>
  <path class="cls-19" d="M104.9,904.62s-58.98-1.41-104.9-2.9v-153.51c10.48-16.45,14.17-25.27,14.17-25.27-10.85,1.48-11.89-1.19-6.09-13.08,5.8-11.9,15.31-34.79,15.31-34.79,0,0-5.5,3.12-10.56-2.82-5.05-5.95,14.12-26.67,20.32-51.11,6.21-24.43,5.81-22.63,9.62-23.23,3.8-.6,6.41,9.82,12.21,30.44,5.81,20.63,17.43,32.05,21.63,40.46,4.21,8.41-13.42,5.61-13.42,5.61,0,0,18.43,34.64,18.03,43.45-.4,8.82-12.93-.92-6.95,14.69,5.98,15.62,14.95,11.3,19.6,30.56,4.65,19.27-1.66,32.22-5.31,61.28-3.66,29.05,16.34,80.22,16.34,80.22Z"/>
  <path class="cls-18" d="M434.11,958.07c25.01-13.31,28.68-30.42,22.23-51.12s-37.64-23.66-37.64-23.66c0,0,.54-27.43-20.17-41.41s-57.81.27-62.38,25.81-3.76,82.54-2.69,82.54,100.64,7.83,100.64,7.83Z"/>
  <path class="cls-16" d="M376.54,947.51s14.58-31.56,7.62-47.45-35.04-10.23-35.04-10.23c0,0,1.63-22.35-9.96-30.87s-34-3.51-34-3.51c0,0-.87-23.5-21.76-26.77s-31.56,13.06-31.56,13.06c0,0,3.05-19.15-17.85-19.15s-42.22,15.89-44.4,27.2-10.45,67.87-10.45,67.87c0,0,72.6,50.47,76.09,50.47s121.31-20.62,121.31-20.62Z"/>
  <path class="cls-17" d="M227.59,919.4s-161.59,16.65-227.59,23.37v-173.65c14.94-6.04,36.96-3.75,59.1-8.08,32.19-6.3,40.27,13.4,40.27,13.4,0,0,8.08-16.5,34.76-8.25,26.47,8.18,21.85,36.56,21.78,37.03.52-.16,16.71-5.26,30.54,4.93,14.04,10.36,11.41,40.2,11.41,40.2,0,0,26.51-7.2,37.04,21.95,10.53,29.14-7.31,49.1-7.31,49.1Z"/>
  <path class="cls-15" d="M145.91,915.35s-84.18,16.1-145.91,25v-165.69c22.97,6.86,28.02,34.14,28.02,34.14,0,0,18.35-17.58,37.01-10.89,18.66,6.69,21.46,32.03,21.46,32.03,0,0,11.5-5.13,24.1-1.24,12.59,3.89,17.41,33.43,17.41,33.43,0,0,26.59,1.09,28.62,21.62,2.02,20.52-10.71,31.6-10.71,31.6Z"/>
  <path class="cls-1" d="M1367.8,1152H0v-263.83s274.49,19.13,490.89,46.18c216.4,27.05,500.75,142.51,651.17,174.84,63.9,13.73,148.99,29.37,225.74,42.81Z"/>
  <path class="cls-29" d="M2145.39,875.4c-40.28-27.94-45.06-51.1-38.01-68.98s44.56-16.87,56.64-2.52c0,0,24.17-13.34,43.55-3.52s14.6,44.56,3.52,52.61-65.7,22.4-65.7,22.4Z"/>
  <polygon class="cls-10" points="2297.5 805.05 2234.66 850.5 2233.8 851.12 2210.5 850.7 2177.31 850.1 2174.82 819.07 2190.7 662.63 2193.98 630.34 2201.36 614.71 2201.36 573.48 2269.54 573.48 2269.54 621.23 2275.01 638.96 2277.38 656.49 2297.5 805.05"/>
  <path class="cls-9" d="M2277.38,656.49c-11.33-8.09-27.78-18.65-50.24-16.68-17.44,1.52-28.29,10.67-36.44,22.82l3.28-32.29,7.38-15.63,8.33,10.59,53.82-.91,6.02-3.16,5.47,17.73,2.37,17.53Z"/>
  <g>
    <path class="cls-23" d="M2234.66,782.35v68.15l-.86.62-23.3-.42v-68.35c0-6.67,5.41-12.08,12.08-12.08,3.34,0,6.36,1.35,8.54,3.54,2.19,2.19,3.54,5.21,3.54,8.54Z"/>
    <path class="cls-23" d="M2244.54,669.95h0c-4.99,0-9.04,4.05-9.04,9.04v19.3h18.08v-19.3c0-4.99-4.05-9.04-9.04-9.04Z"/>
    <g>
      <rect class="cls-23" x="2185.14" y="612.58" width="100.47" height="29.2" rx="4.3" ry="4.3"/>
      <g>
        <g>
          <rect class="cls-23" x="2193.66" y="569.6" width="83.38" height="9.09" rx="4.55" ry="4.55"/>
          <g>
            <path class="cls-23" d="M2269.42,575.51h-67.21c0-17.42,14.12-31.54,31.54-31.54h4.13c17.42,0,31.54,14.12,31.54,31.54h0Z"/>
            <circle class="cls-23" cx="2235.81" cy="537.16" r="9.32"/>
          </g>
        </g>
        <rect class="cls-23" x="2218.48" y="577.48" width="7.07" height="47.83"/>
        <rect class="cls-23" x="2244.64" y="577.48" width="7.07" height="47.83"/>
      </g>
    </g>
  </g>
  <path class="cls-5" d="M2688,867.04v123.83l-749.62,9.08s11.79-37.11,42.56-52.43c30.78-15.32,32.83-17.99,36.12-25.07,3.28-7.08,15.33-64.95,52.72-88.21,37.39-23.26,128.41-25.61,183.8-25.61,44.77,0,297.46,28.72,434.42,58.41Z"/>
  <path class="cls-30" d="M2242.03,877.09c-14.47-30.16-18.57-44.25-12.09-49.53s12.09-3.01,12.09-3.01c0,0-3.95-12.21,10.06-20.05s24.27,0,24.27,0c0,0-4.97-12.51,11.61-18.54s29.99-1.06,36.32,13.41c0,0,9.35-15.83,11.15-18.09s-6.76,1.22-6.51-6.1,5.73-8.84,10.36-17.18,4.63-10.02,4.63-10.02c0,0-14.74-.67-10.02-5.39s7.66-9.94,15.24-26.36,6.57-24.76,10.61-21.89,7.16,17.01,9.01,21.56,10.95,21.47,14.82,26.44-7.75,5.64-7.75,5.64c0,0,4.29,15.41,15.41,24.59s60.24,101.95,46.42,115.77-195.64-11.25-195.64-11.25Z"/>
  <path class="cls-2" d="M2363.99,849.99s16.21-35.5,21.95-43.29,6.98-13.54,6.98-13.54c0,0-17.24-2.26-14.47-10.26s11.43-11.85,24.01-39.41c0,0-10.68.38-12.55-4.73s10.59-16.57,15.82-29.27,8.22-19.43,8.22-19.43c0,0-20.42,2.04-13.81-6.93s17.03-27.08,22.46-46.73,8.51-25.99,12.5-26.44,5.52,12.32,13.76,30.97,15.12,33.14,20.38,40.39-3.26,8.97-6.97,8.6-5.34-.54-5.34-.54c0,0,3.89,16.75,15.49,31.33s13.67,18.66,8.69,21.73-12.04,1.36-12.04,1.36c0,0,8.51,22.91,24.36,37.67s27.02,91.31,27.02,91.31l-156.46-22.79Z"/>
  <path class="cls-27" d="M2305.4,855.5c-6.91-21.79-4.88-31.32,2.74-35.37s22.03,1.91,22.03,1.91c0,0,.24-13.34,17.74-14.88s24.65,17.74,24.65,17.74c0,0,3.93-8.45,18.34-4.88s9.05,23.1,9.05,23.1l-94.55,12.38Z"/>
  <path class="cls-26" d="M2688,879.26v135.48l-551.91-5.71s3.17-48.59,28.89-63.51c25.72-14.93,26.09-18.31,31.17-32.73,5.09-14.42,15.13-48.92,26.43-58.43,11.3-9.51,32.5-15.93,48.14-18.35,15.64-2.42,98.68-14.94,146.66-5.12,47.98,9.81,227.85,36.13,259.32,44.51,3.28.88,7.1,2.19,11.3,3.86Z"/>
  <path class="cls-4" d="M2688,841.48v55.92l-61,1.88s-12.19-17.59-25.99-19.49c-8-1.09-81.89-.92-142.63-.58-44.11.25-81.28.58-81.28.58,0,0-4.75-25.55,9.94-34.99,14.69-9.44,27.95-4.84,27.95-4.84,0,0,1.23-19.98,15.02-26.52s30.05.71,30.05.71c0,0,.71-20.68,14.15-26.16,13.43-5.48,22.26-2.88,22.26-2.88,0,0,9.89-13.92,16.89-23.09,7-9.17,9.08-15.67,9.08-15.67,0,0-15.99,2.09-11.08-7.41,4.92-9.5,17.42-25.34,18.83-28.84,1.42-3.5,1.67-4.83,1.67-4.83,0,0-10.75,1.42-9.83-6.08.91-7.5,9.41-14.25,17.25-31.17,7.83-16.91,8.66-27.75,15.25-28.08,6.58-.33,7.16,19.25,15,33.58,7.83,14.33,18.91,24.58,14.66,29.75-4.25,5.17-10.5,1.33-10.5,1.33,0,0,5.25,12.42,13.92,24.75,8.67,12.34,7.33,12.67,3.67,15-3.67,2.34-7.09,1.59-7.09,1.59,0,0,.76,1.8,2.07,4.82,5.14,11.92,18.68,42.87,27.04,57.87,4.62,8.29,38.38,21.1,74.7,32.85Z"/>
  <path class="cls-12" d="M2688,734.37v163.03l-61,1.88s-12.19-17.59-25.99-19.49c-8-1.09-81.89-.92-142.63-.58-.18-10.43,2.12-21.92,11.18-28.89,19.84-15.26,35.11-6.78,35.11-6.78,0,0,7.46-25.1,24.75-28.49,17.3-3.39,33.41,1.69,33.41,1.69,0,0-5.09-18.99,0-42.73,2.75-12.84,12.65-19.78,23.43-23.25,9.16-2.95,18.96-3.41,25.58-2.86,14.41,1.18,18.65,9.15,18.65,9.15,0,0,0-18.99,26.12-25.6,13.07-3.31,23.63-1.01,31.39,2.92Z"/>
  <path class="cls-13" d="M2428.84,1025.5h-180.35c-16.75,0-23.54-32.86-20.02-41.45.06-.14.12-.28.18-.41,3.93-7.9,25.35-36.42,50.46-46.72,25.12-10.31,64.82-17.6,94.87-4.08,30.05,13.52,53.34,52.26,55.49,61.82,2.15,9.55-.63,30.84-.63,30.84Z"/>
  <path class="cls-8" d="M2280.26,1025.5h-31.77c-16.75,0-23.54-32.86-20.02-41.45,15.07,8.6,37.09,21.97,45.38,32.93,2.62,3.47,4.72,6.26,6.41,8.52Z"/>
  <path class="cls-25" d="M2256.79,1028.68c2.79,7.94-7.83,7.62-18.46,7.62s-54.2,1.4-67.29,0-16.96-4.73-14.38-13.58,24.58-31.71,35.74-37.29,30.37-3.97,44.86,6.87,19.53,36.38,19.53,36.38Z"/>
  <path class="cls-25" d="M2441.17,1037.24c-26.14.65-31.62,0-30.38-8s11.25-32,22.88-40.25,42.12-12.12,56.5-1.5,25,41.88,23.88,47.12-62.75,2.38-72.88,2.62Z"/>
  <polygon class="cls-28" points="2688 1023.03 2688 1069.79 0 1074.11 0 1021.44 2688 1023.03"/>
  <path class="cls-20" d="M698.95,1041.14c-7.41,0-22.01-.59-34.62-2.09-3.21-.38-6.28-.82-9.08-1.32-13.79-2.48-17.82-13.33-5.27-22.78.04-.03.07-.05.11-.08,12.6-9.4,38.83-14.4,53.36,17.13,4,8.68,4.8,9.14-4.5,9.14Z"/>
  <path class="cls-22" d="M664.33,1039.05c-3.21-.38-6.28-.82-9.08-1.32-13.79-2.48-17.82-13.33-5.27-22.78.04-.03.07-.05.11-.08,5.16,4.92,12.85,13.83,14.24,24.18Z"/>
  <path class="cls-25" d="M637.92,994.78c14.34,23.99,19.15,47.25-3.95,50.06s-71.34,1.91-107.72-4.85-68.92-13.15-76.58-33.57,31.78-62.79,46.58-72.36,46.46-14.04,80.02,1.15,49.58,39.41,61.64,59.58Z"/>
  <path class="cls-11" d="M454.99,999.7c15.37,17.53,17.67,32.58.97,34.2s-69.71,3.08-79.27-7.46,9.56-36.96,28.69-42.63,39.23,4.05,49.6,15.89Z"/>
</svg>