<?xml version="1.0" standalone="no"?>
<!DOCTYPE svg PUBLIC "-//W3C//DTD SVG 20010904//EN"
 "http://www.w3.org/TR/2001/REC-SVG-20010904/DTD/svg10.dtd">
<svg version="1.0" xmlns="http://www.w3.org/2000/svg"
 width="887.000000pt" height="460.000000pt" viewBox="0 0 887.000000 460.000000"
 preserveAspectRatio="xMidYMid meet">
<metadata>
Created by potrace 1.16, written by Peter Selinger 2001-2019
</metadata>
<g transform="translate(0.000000,460.000000) scale(0.100000,-0.100000)"
fill="#ffffff" stroke="none">
<path d="M0 2300 l0 -2300 4060 0 4060 0 0 440 0 440 -105 0 -105 0 0 -335 0
-335 -3855 0 -3855 0 0 2090 0 2090 3855 0 3855 0 0 -335 0 -335 105 0 105 0
0 440 0 440 -4060 0 -4060 0 0 -2300z"/>
<path d="M1645 3294 c-202 -45 -369 -157 -468 -315 -43 -67 -62 -113 -87 -201
l-19 -68 114 0 113 0 12 38 c36 111 143 231 253 283 103 48 191 62 347 56 218
-9 346 -53 439 -151 85 -90 115 -175 127 -357 l7 -106 -54 -6 c-30 -4 -170 -7
-311 -7 -285 0 -431 -14 -572 -55 -276 -80 -444 -230 -502 -448 -18 -66 -18
-237 0 -302 40 -150 152 -264 314 -319 184 -63 445 -61 704 4 102 26 239 90
341 159 l77 52 0 -111 0 -110 111 0 110 0 -4 693 c-4 781 -2 763 -81 923 -83
167 -237 282 -446 334 -116 29 -420 37 -525 14z m835 -1243 l0 -188 -76 -72
c-200 -191 -417 -273 -719 -275 -194 -1 -286 24 -367 102 -52 49 -72 113 -66
211 9 142 82 240 230 311 168 80 291 98 696 99 l302 1 0 -189z"/>
<path d="M5965 3294 c-263 -59 -496 -247 -627 -509 -41 -80 -81 -202 -98 -295
-17 -94 -15 -291 4 -394 71 -378 334 -678 681 -778 115 -33 335 -33 450 0 226
65 423 218 546 423 21 36 39 68 39 72 0 4 -57 7 -127 7 l-128 0 -47 -59 c-118
-148 -326 -251 -508 -251 -131 0 -298 62 -412 154 -110 88 -200 224 -251 379
-39 121 -49 299 -22 428 55 276 238 497 487 587 64 23 88 27 198 27 110 0 134
-4 198 -27 41 -15 99 -42 129 -60 66 -40 170 -133 204 -182 l24 -36 128 0 c70
0 127 4 127 8 0 13 -69 123 -112 180 -112 144 -294 267 -473 317 -87 24 -319
29 -410 9z"/>
<path d="M2980 2300 l0 -970 110 0 110 0 2 756 3 757 342 -754 342 -754 108
-3 108 -3 345 760 345 760 3 -760 2 -759 110 0 110 0 0 970 0 971 -141 -3
-141 -3 -349 -770 c-193 -423 -359 -790 -370 -815 l-20 -45 -372 818 -371 817
-138 0 -138 0 0 -970z"/>
<path d="M7920 2775 l0 -375 -375 0 -375 0 0 -100 0 -100 375 0 375 0 0 -375
0 -375 100 0 100 0 0 375 0 375 375 0 375 0 0 100 0 100 -375 0 -375 0 0 375
0 375 -100 0 -100 0 0 -375z"/>
</g>
</svg>
